<?xml version="1.0" standalone="no"?>
<svg width="64" height="64" viewBox="0 0 416 384" version="1.1" xmlns="http://www.w3.org/2000/svg">
  <path d="M208 400c115 0 208 -93 208 -208s-93 -208 -208 -208s-208 93 -208 208s93 208 208 208zM186 15c6 15 21 29 8 39c-8 7 -16 14 -23 21c-2 2 -11 20 -9 23c5 9 6 14 8 24c3 12 -3 16 -13 22c-15 10 -29 23 -43 34c-7 5 -17 10 -20 19s-5 20 -10 28c-14 20 -12 34 -10 58 c0 7 -1 16 -2 25c-28 -32 -42 -73 -42 -116c0 -48 18 -92 52 -126c29 -29 65 -46 104 -51zM334 66c23 23 39 51 47 82c-8 -1 -19 2 -19 2s-21 24 -23 45c-2 22 0 39 -3 57c-3 16 -20 31 -27 46c-7 14 -13 28 -20 42c2 -1 5 -2 7 -3c5 1 10 2 14 2c-23 16 -49 25 -76 29v-8 l4 -9l-14 -13l-9 3l-10 10l-10 12l-14 5c-16 -2 -31 -7 -45 -13v-7c7 3 16 5 23 8c3 1 13 -7 16 -9c-4 -5 -21 -15 -22 -21c0 -2 7 -6 7 -10c0 -6 -1 -11 -1 -17c3 3 20 21 22 21c13 3 35 -19 37 -26s-22 -24 -33 -34c-8 -8 -25 -12 -20 -24c2 -4 10 -20 5 -24 c-6 -5 -14 9 -17 12c-8 10 -26 7 -38 7c0 -17 -1 -31 15 -43c15 -11 30 -25 47 -33c13 -6 36 7 47 -1c16 -11 29 -21 47 -29c8 -3 33 -20 26 -31c-5 -8 -10 -15 -14 -23s-13 -20 -20 -25c-8 -6 -16 -17 -21 -29c35 7 66 23 92 49z" transform="matrix(1,0,0,-1,0,384)"/>
</svg>