<?xml version="1.0" standalone="no"?>
<svg width="64" height="64" viewBox="0 0 512 384" version="1.1" xmlns="http://www.w3.org/2000/svg">
  <path d="M441 311c4 -3 7 -8 7 -14v-281c0 -6 -2 -11 -7 -14c-2 -1 -5 -2 -7 -2c-3 0 -6 0 -8 2l-97 66l-97 -66c-5 -3 -10 -3 -15 0l-97 66l-97 -66c-5 -3 -10 -3 -15 0s-8 8 -8 14v281c0 6 3 11 7 14l105 71c5 3 10 3 15 0l97 -66l98 66c5 3 10 3 15 0zM103 95v242l-71 -50v-242 zM135 95l73 -49v129l-4 -11c-7 2 -13 6 -20 10l8 13c5 -3 11 -6 16 -8v109l-73 49v-101c4 -2 9 -4 13 -7l-10 -13c-1 1 -2 1 -3 2v-123zM240 46l73 49v109c0 -1 -1 -1 -1 -2l-6 -6l-12 11l6 6c3 3 5 7 8 10l5 -5v119l-73 -49v-112h7l3 -15c-3 0 -6 -1 -9 -1h-1v-114zM416 46 v242l-71 49v-88c3 1 5 1 8 2l4 -16c-4 -1 -8 -1 -12 -3v-137zM97 227c-3 -1 -11 -5 -14 -7l-11 12c4 3 8 6 12 8c3 2 6 3 9 4l5 -15c-2 -1 1 -1 -1 -2zM265 182c5 3 10 5 15 10l11 -12c-6 -6 -12 -10 -19 -13zM67 192v-1l-15 5v1c2 7 4 13 9 20l13 -9c-4 -5 -5 -10 -7 -16z M166 210c3 -4 7 -8 11 -11l-11 -12c-4 4 -8 9 -12 13l-3 3l12 11c1 -1 2 -3 3 -4zM376 218l-11 12l10 10l-10 10l11 12l10 -11l11 11l11 -12l-10 -10l10 -10l-11 -12l-11 11z" transform="matrix(1,0,0,-1,0,384)"/>
</svg>